<svg width="20" height="20" viewBox="0 0 20 20" fill="none" xmlns="http://www.w3.org/2000/svg">
<path d="M17.5 7.45001C17.4913 7.37345 17.4746 7.29803 17.45 7.22501V7.15001C17.4099 7.06432 17.3565 6.98556 17.2917 6.91667L12.2917 1.91667C12.2228 1.85185 12.144 1.79841 12.0583 1.75834C12.0335 1.75481 12.0082 1.75481 11.9833 1.75834C11.8987 1.70979 11.8052 1.67863 11.7083 1.66667H8.33333C7.67029 1.66667 7.03441 1.93006 6.56557 2.3989C6.09673 2.86775 5.83333 3.50363 5.83333 4.16667V5.00001H5C4.33696 5.00001 3.70107 5.2634 3.23223 5.73224C2.76339 6.20108 2.5 6.83696 2.5 7.50001V15.8333C2.5 16.4964 2.76339 17.1323 3.23223 17.6011C3.70107 18.0699 4.33696 18.3333 5 18.3333H11.6667C12.3297 18.3333 12.9656 18.0699 13.4344 17.6011C13.9033 17.1323 14.1667 16.4964 14.1667 15.8333V15H15C15.663 15 16.2989 14.7366 16.7678 14.2678C17.2366 13.7989 17.5 13.163 17.5 12.5V7.50001C17.5 7.50001 17.5 7.50001 17.5 7.45001ZM12.5 4.50834L14.6583 6.66667H13.3333C13.1123 6.66667 12.9004 6.57887 12.7441 6.42259C12.5878 6.26631 12.5 6.05435 12.5 5.83334V4.50834ZM12.5 15.8333C12.5 16.0544 12.4122 16.2663 12.2559 16.4226C12.0996 16.5789 11.8877 16.6667 11.6667 16.6667H5C4.77899 16.6667 4.56702 16.5789 4.41074 16.4226C4.25446 16.2663 4.16667 16.0544 4.16667 15.8333V7.50001C4.16667 7.27899 4.25446 7.06703 4.41074 6.91075C4.56702 6.75447 4.77899 6.66667 5 6.66667H5.83333V12.5C5.83333 13.163 6.09673 13.7989 6.56557 14.2678C7.03441 14.7366 7.67029 15 8.33333 15H12.5V15.8333ZM15.8333 12.5C15.8333 12.721 15.7455 12.933 15.5893 13.0893C15.433 13.2455 15.221 13.3333 15 13.3333H8.33333C8.11232 13.3333 7.90036 13.2455 7.74408 13.0893C7.5878 12.933 7.5 12.721 7.5 12.5V4.16667C7.5 3.94566 7.5878 3.7337 7.74408 3.57742C7.90036 3.42114 8.11232 3.33334 8.33333 3.33334H10.8333V5.83334C10.8333 6.49638 11.0967 7.13227 11.5656 7.60111C12.0344 8.06995 12.6703 8.33334 13.3333 8.33334H15.8333V12.5Z" fill="black"/>
</svg>
